<svg width="40" height="40" viewBox="0 0 40 40" fill="none" xmlns="http://www.w3.org/2000/svg">
<g opacity="0.5">
<path d="M15.3338 5H13.6671C13.6671 5 13.6671 7 13.8338 9.83333C13.5004 11.3333 12.3338 12.6667 11.0004 13.6667C9.6671 12.6667 8.50043 11.3333 8.00043 9.83333C8.1671 7 8.1671 5 8.1671 5H6.6671C6.6671 5.16667 6.50043 15.5 5.33377 23.6667C4.50043 28.8333 5.83377 32.3333 7.1671 34C7.6671 34.6667 8.33377 35 8.83377 35H13.0004C13.6671 35 14.3338 34.6667 14.8338 34C16.1671 32.5 17.3338 28.8333 16.6671 23.6667C15.5004 15.5 15.3338 5.16667 15.3338 5ZM14.0004 13C14.0004 14 14.1671 14.8333 14.1671 15.8333C13.6671 15.5 13.0004 15.1667 12.3338 14.6667C13.0004 14.1667 13.5004 13.6667 14.0004 13ZM7.83377 13C8.33377 13.6667 9.00043 14.1667 9.50043 14.8333C9.00043 15.1667 8.33377 15.5 7.6671 15.8333C7.83377 14.8333 7.83377 13.8333 7.83377 13ZM7.50043 17.6667C8.33377 17.3333 9.50043 16.6667 10.8338 15.6667C12.1671 16.6667 13.5004 17.3333 14.1671 17.6667C14.1671 18.3333 14.3338 18.8333 14.3338 19.5C14.3338 22.6667 12.6671 25.1667 10.8338 25.3333C8.83377 25.3333 7.33377 22.6667 7.33377 19.5C7.50043 19 7.50043 18.3333 7.50043 17.6667ZM13.6671 32.8333C13.3338 33.3333 13.1671 33.3333 13.0004 33.3333H8.83377C8.83377 33.3333 8.50043 33.1667 8.1671 32.8333C7.1671 31.6667 6.00043 28.5 6.83377 23.8333C7.83377 25.6667 9.1671 26.8333 11.0004 26.8333C12.6671 26.8333 14.1671 25.6667 15.1671 23.8333C15.8338 28.5 14.8338 31.6667 13.6671 32.8333Z" fill="#F1F1F1"/>
<path d="M34.3337 12.5C33.8337 12 33.167 11.6667 32.3337 11.1667C30.167 10 27.8337 8.66667 27.8337 5H26.167C26.167 6.5 26.5003 7.5 27.0003 8.5C25.0003 9.5 23.667 10.8333 22.8337 11.8333C22.3337 9.16667 21.667 6.5 21.3337 5H19.667C20.3337 7.5 22.167 15.3333 22.167 19.5C22.167 20.1667 22.167 21 22.167 21.8333C22.0003 26 22.0003 31.3333 24.167 33.6667C25.0003 34.5 26.0003 34.8333 27.167 34.8333C28.3337 34.8333 29.3337 34.5 30.0003 33.8333C31.3337 32.5 31.167 30 31.0003 27.3333C30.8337 25.3333 30.8337 23.1667 31.3337 21.3333C32.0003 19 33.0003 17.5 33.8337 16.3333C34.8337 15.1667 35.667 13.8333 34.3337 12.5ZM23.167 14.1667C23.5003 13.5 25.0003 11.1667 27.8337 9.83333C28.3337 10.3333 28.8337 10.8333 29.3337 11.1667C29.3337 12 29.0003 14 28.3337 16.3333C27.167 16.3333 24.8337 15.8333 23.167 14.1667ZM23.5003 16.6667C25.0003 17.5 26.667 18 27.667 18.1667C26.8337 20.5 25.5003 22.8333 23.5003 24.8333C23.5003 23.8333 23.5003 22.8333 23.5003 22C23.5003 21.1667 23.5003 20.3333 23.5003 19.6667C23.8337 18.6667 23.667 17.6667 23.5003 16.6667ZM32.5003 15.6667C31.667 16.8333 30.5003 18.5 29.8337 21C29.167 23 29.3337 25.5 29.5003 27.5C29.667 29.8333 29.667 31.8333 28.8337 32.8333C28.5003 33.1667 28.0003 33.3333 27.167 33.3333C26.3337 33.3333 25.8337 33.1667 25.3337 32.5C24.167 31.3333 23.8337 29.1667 23.667 26.6667C29.0003 22.3333 30.5003 15 30.8337 12.1667C31.0003 12.3333 31.3337 12.5 31.5003 12.5C32.167 12.8333 32.8337 13.1667 33.167 13.5C33.5003 14 33.5003 14.1667 32.5003 15.6667Z" fill="#F1F1F1"/>
</g>
</svg>
