<svg width="40" height="40" viewBox="0 0 40 40" fill="none" xmlns="http://www.w3.org/2000/svg">
<g opacity="1.0">
<path d="M36.6663 20.1666L19.9997 6.66663L3.33301 20.1666L4.33301 21.5L7.99968 18.5V30C7.99968 31.8333 9.49968 33.3333 11.333 33.3333H15.9997C16.833 33.3333 17.4997 32.6666 17.4997 31.8333V25.5C17.4997 24.8333 17.833 24.1666 18.333 23.6666C18.833 23.1666 19.4997 23 20.1663 23C21.4997 23 22.4997 24.3333 22.4997 25.6666V31.8333C22.4997 32.6666 23.1663 33.3333 23.9997 33.3333H28.6663C30.4997 33.3333 31.9997 31.8333 31.9997 30V18.5L35.6663 21.5L36.6663 20.1666ZM30.333 30C30.333 31 29.6663 31.6666 28.6663 31.6666H24.333V25.6666C24.333 23.3333 22.4997 21.3333 20.333 21.3333C19.1663 21.3333 17.9997 21.6666 17.1663 22.5C16.333 23.3333 15.833 24.3333 15.833 25.5V31.6666H11.333C10.333 31.6666 9.66634 30.8333 9.66634 30V17.1666L19.9997 8.83329L30.333 17.1666V30Z" fill="#F1F1F1"/>
</g>
</svg>
