<svg width="40" height="40" viewBox="0 0 40 40" fill="none" xmlns="http://www.w3.org/2000/svg">
<g opacity="1.0">
<path d="M20.0003 25.8334C16.8337 25.8334 14.167 23.1667 14.167 20C14.167 16.8334 16.8337 14.1667 20.0003 14.1667C23.167 14.1667 25.8337 16.8334 25.8337 20C25.8337 23.1667 23.167 25.8334 20.0003 25.8334ZM20.0003 15.8334C17.667 15.8334 15.8337 17.6667 15.8337 20C15.8337 22.3334 17.667 24.1667 20.0003 24.1667C22.3337 24.1667 24.167 22.3334 24.167 20C24.167 17.6667 22.3337 15.8334 20.0003 15.8334Z" fill="#F1F1F1"/>
<path d="M28.0006 29L26.834 27.8334C30.6673 23.5 30.6673 16.5 26.834 12L28.0006 10.8334C32.5006 16 32.5006 24 28.0006 29Z" fill="#F1F1F1"/>
<path d="M12 29C7.66667 24 7.66667 15.8334 12 10.8334L13.1667 12C9.33333 16.3334 9.33333 23.3334 13.1667 27.8334L12 29Z" fill="#F1F1F1"/>
<path d="M31.8337 33.3334L30.667 32.1667C36.5003 25.5 36.5003 14.5 30.667 7.83335L31.8337 6.66669C38.3337 14 38.3337 26 31.8337 33.3334Z" fill="#F1F1F1"/>
<path d="M8.16699 33.3334C1.66699 26 1.66699 14 8.16699 6.66669L9.33366 7.83335C3.50033 14.5 3.50033 25.5 9.33366 32.1667L8.16699 33.3334Z" fill="#F1F1F1"/>
</g>
</svg>
