<svg width="40" height="40" viewBox="0 0 40 40" fill="none" xmlns="http://www.w3.org/2000/svg">
<g opacity="1.0">
<path d="M14.8329 22.8333L14.9996 25.5L16.6662 25.3333L16.4996 22.6667C16.3329 21.1667 15.3329 19.8333 13.8329 19.1667C11.1662 18 9.66623 15.6667 9.66623 15.5L8.16623 16.3333L12.3329 28.3333C11.3329 28 10.1662 28 9.16623 28.5C8.16623 29 7.3329 29.8333 6.8329 30.8333C6.49957 31.8333 6.49957 33 6.99957 34.1667C7.49957 35.3333 8.3329 36 9.3329 36.5C9.99957 36.5 10.4996 36.6667 10.9996 36.6667C11.6662 36.6667 12.1662 36.5 12.8329 36.3333C14.8329 35.5 15.8329 33.1667 15.1662 31.1667L11.1662 19.6667C11.6662 20 12.4996 20.5 13.1662 20.8333C14.1662 21.1667 14.8329 22 14.8329 22.8333ZM13.3329 31.3333C13.9996 32.6667 13.3329 34.1667 11.9996 34.8333C11.3329 35 10.6662 35 9.99957 34.8333C9.3329 34.5 8.8329 34.1667 8.49957 33.5C8.16623 32.8333 8.16623 32.1667 8.49957 31.5C8.8329 30.8333 9.16623 30.3333 9.8329 30C10.1662 29.8333 10.4996 29.8333 10.8329 29.8333C11.9996 29.6667 12.9996 30.3333 13.3329 31.3333Z" fill="#F1F1F1"/>
<path d="M35 13.8334L24.5 8.16675L23 22.3334C22.5 22.0001 22 21.8334 21.5 21.8334C19.8333 21.8334 18.5 23.1667 18.5 24.8334C18.5 26.5001 19.8333 27.8334 21.5 27.8334C23.1667 27.8334 24.3333 26.5001 24.5 25.0001L25.5 15.6667L32.8333 19.6667L32 26.6667C31.5 26.3334 31 26.1667 30.5 26.1667C28.8333 26.1667 27.5 27.5001 27.5 29.1667C27.5 30.8334 28.8333 32.1667 30.5 32.1667C32.1667 32.1667 33.3333 30.8334 33.5 29.3334L34.6667 19.0001L35 13.8334ZM21.5 26.0001C20.8333 26.0001 20.1667 25.5001 20.1667 24.6667C20.1667 24.0001 20.6667 23.3334 21.5 23.3334C22.3333 23.3334 22.8333 23.8334 22.8333 24.6667C22.6667 25.5001 22.1667 26.0001 21.5 26.0001ZM30.3333 30.1668C29.6667 30.1668 29 29.6667 29 28.8334C29 28.1667 29.5 27.5001 30.3333 27.5001C31.1667 27.5001 31.6667 28.0001 31.6667 28.8334C31.6667 29.6667 31.1667 30.1668 30.3333 30.1668ZM32.8333 17.6667L25.5 13.6667L25.8333 10.6667L33.1667 14.6667L32.8333 17.6667Z" fill="#F1F1F1"/>
<path d="M18.3327 10L19.8327 10.5L20.3327 9.00004C20.666 8.00004 20.4993 6.83337 19.666 6.16671C18.666 5.00004 18.3327 3.33337 18.3327 3.33337H16.666L16.166 10.5C15.666 10.1667 15.166 10 14.666 10C12.9993 10 11.666 11.3334 11.666 13C11.666 14.6667 12.9993 16 14.666 16C16.166 16 17.4993 14.8334 17.666 13.3334L18.166 6.83337C18.3327 7.00004 18.4993 7.16671 18.4993 7.33337C18.8327 7.66671 18.9993 8.16671 18.8327 8.50004L18.3327 10ZM14.666 14.3334C13.8327 14.3334 13.3327 13.6667 13.3327 13C13.3327 12.3334 13.8327 11.6667 14.666 11.6667C15.3327 11.6667 15.9993 12.1667 15.9993 13C15.8327 13.6667 15.3327 14.3334 14.666 14.3334Z" fill="#F1F1F1"/>
</g>
</svg>
