<svg width="40" height="40" viewBox="0 0 40 40" fill="none" xmlns="http://www.w3.org/2000/svg">
<g opacity="0.5">
<path d="M35 33.8333L26.8333 25.6667C28.8333 23.5 30 20.6667 30 17.5C30 10.6667 24.3333 5 17.5 5C10.6667 5 5 10.6667 5 17.5C5 24.3333 10.6667 30 17.5 30C20.6667 30 23.5 28.8333 25.6667 26.8333L33.8333 35L35 33.8333ZM6.66667 17.5C6.66667 11.5 11.5 6.66667 17.5 6.66667C23.5 6.66667 28.3333 11.5 28.3333 17.5C28.3333 23.5 23.5 28.3333 17.5 28.3333C11.5 28.3333 6.66667 23.5 6.66667 17.5Z" fill="#F1F1F1"/>
</g>
</svg>
