<svg width="40" height="40" viewBox="0 0 40 40" fill="none" xmlns="http://www.w3.org/2000/svg">
<g opacity="0.5">
<path d="M32.3612 20.189C32.3612 19.8557 32.3612 19.5223 32.3612 19.0223L37.0003 14.689L33.5639 8.85567L27.3783 10.5223C26.691 10.189 26.0038 9.85567 25.3165 9.52234L23.7701 3.52234H16.8972L15.3508 9.52234C14.6636 9.85567 13.9763 10.189 13.4608 10.689L7.27524 9.02234L3.83881 14.8557L8.30617 19.189C8.30617 19.5223 8.30617 19.8557 8.30617 20.3557C8.30617 20.8557 8.30617 21.0223 8.30617 21.5223L3.66699 25.689L7.10342 31.5223L13.4608 29.8557C13.9763 30.189 14.6636 30.5223 15.3508 30.8557L16.8972 36.8557H23.7701L25.3165 30.8557C26.0038 30.5223 26.691 30.189 27.2065 29.689L33.3921 31.3557L36.8285 25.5223L32.1893 21.189C32.3612 20.8557 32.3612 20.5223 32.3612 20.189ZM34.7666 25.8557L32.7048 29.3557L27.722 28.0223L26.8629 27.8557L26.1756 28.3557C25.6601 28.689 24.9728 29.0223 24.4574 29.3557L23.7701 29.689L23.5983 30.5223L22.3955 35.189H18.1L16.8972 30.3557L16.7254 29.5223L16.0381 29.189C15.5227 28.8557 14.8354 28.689 14.3199 28.189L13.6326 27.689L12.7735 27.8557L7.96252 29.189L5.90067 25.689L9.50892 22.189L10.0244 21.8557V21.0223C10.0244 20.3557 10.0244 19.689 10.0244 19.189V18.3557L9.50892 17.8557L5.90067 14.5223L7.96252 11.0223L12.7735 12.3557L13.6326 12.5223L14.3199 12.0223C14.8354 11.689 15.5227 11.3557 16.0381 11.0223L16.7254 10.689L16.8972 9.85567L18.1 5.18901H22.2237L23.4264 10.0223L23.5983 10.8557L24.2855 11.189C24.801 11.5223 25.4883 11.689 26.0038 12.189L26.691 12.689L27.722 12.3557L32.7048 11.0223L34.7666 14.5223L31.1584 18.0223L30.4711 18.5223V19.3557C30.4711 20.0223 30.4711 20.689 30.4711 21.189V22.0223L30.9866 22.5223L34.7666 25.8557Z" fill="#F1F1F1"/>
<path d="M20.3338 13.5223C16.5537 13.5223 13.4609 16.5223 13.4609 20.189C13.4609 23.8557 16.5537 26.8557 20.3338 26.8557C24.1139 26.8557 27.2066 23.8557 27.2066 20.189C27.2066 16.5223 24.1139 13.5223 20.3338 13.5223ZM20.3338 25.189C17.4128 25.189 15.1792 23.0223 15.1792 20.189C15.1792 17.3557 17.4128 15.189 20.3338 15.189C23.2548 15.189 25.4884 17.3557 25.4884 20.189C25.4884 23.0223 23.0829 25.189 20.3338 25.189Z" fill="#F1F1F1"/>
</g>
</svg>
