<svg width="72" height="72" viewBox="0 0 72 72" fill="none" xmlns="http://www.w3.org/2000/svg">
<g opacity="0.7">
<path d="M31.0001 27.6667H27.6667V29.3333H31.0001V27.6667Z" fill="#F1F1F1"/>
<path d="M44.3333 27.6667H34.3333V29.3333H44.3333V27.6667Z" fill="#F1F1F1"/>
<path d="M31.0001 36H27.6667V37.6667H31.0001V36Z" fill="#F1F1F1"/>
<path d="M44.3333 36H34.3333V37.6667H44.3333V36Z" fill="#F1F1F1"/>
<path d="M44.3333 31.8333H41V33.5H44.3333V31.8333Z" fill="#F1F1F1"/>
<path d="M37.6667 31.8333H27.6667V33.5H37.6667V31.8333Z" fill="#F1F1F1"/>
<path d="M47.6667 21H24.3333C23.4493 21 22.6014 21.3512 21.9763 21.9763C21.3512 22.6014 21 23.4493 21 24.3333V41C21 41.8841 21.3512 42.7319 21.9763 43.357C22.6014 43.9821 23.4493 44.3333 24.3333 44.3333H34.8333L44.3333 51V44.3333H47.6667C48.5507 44.3333 49.3986 43.9821 50.0237 43.357C50.6488 42.7319 51 41.8841 51 41V24.3333C51 23.4493 50.6488 22.6014 50.0237 21.9763C49.3986 21.3512 48.5507 21 47.6667 21ZM49.3333 41C49.3481 41.2227 49.3151 41.4459 49.2365 41.6548C49.158 41.8637 49.0357 42.0534 48.8779 42.2112C48.7201 42.369 48.5304 42.4913 48.3215 42.5698C48.1126 42.6484 47.8893 42.6814 47.6667 42.6667H42.6667V47.6667L37.8333 44.3333L37.5 44L35.5 42.6667H24.3333C24.1107 42.6814 23.8874 42.6484 23.6785 42.5698C23.4696 42.4913 23.2799 42.369 23.1221 42.2112C22.9643 42.0534 22.842 41.8637 22.7635 41.6548C22.6849 41.4459 22.6519 41.2227 22.6667 41V24.3333C22.6519 24.1107 22.6849 23.8874 22.7635 23.6785C22.842 23.4696 22.9643 23.2799 23.1221 23.1221C23.2799 22.9643 23.4696 22.842 23.6785 22.7635C23.8874 22.6849 24.1107 22.6519 24.3333 22.6667H47.6667C47.8893 22.6519 48.1126 22.6849 48.3215 22.7635C48.5304 22.842 48.7201 22.9643 48.8779 23.1221C49.0357 23.2799 49.158 23.4696 49.2365 23.6785C49.3151 23.8874 49.3481 24.1107 49.3333 24.3333V41Z" fill="#F1F1F1"/>
</g>
</svg>
