<svg width="72" height="72" viewBox="0 0 72 72" fill="none" xmlns="http://www.w3.org/2000/svg">
<g opacity="0.7">
<path d="M46.3333 26.1667C41 20.8333 32.5 20.5 26.8333 25.1667L27.1666 21H25.5L25 27.8333L31.8333 28.3333L32 26.6667L27.8333 26.3333C32.8333 22.1667 40.3333 22.5 45 27.1667C50 32.1667 50 40.3333 45 45.3333C40 50.3333 31.8333 50.3333 26.8333 45.3333C24.3333 42.8333 23 39.6667 23 36.1667H21.3333C21.3333 40 22.8333 43.6667 25.6666 46.5C28.5 49.5 32.3333 51 36 51C39.6666 51 43.5 49.5 46.3333 46.6667C52 41 52 31.8333 46.3333 26.1667Z" fill="#F1F1F1"/>
<path d="M30.6667 33.1667L29 33.6667L28.5 31.8333L31.3333 31H32.8333V40.8333H30.6667V33.1667Z" fill="#F1F1F1"/>
<path d="M34.8333 36C34.8333 33.1667 36.6666 31 39.1666 31C41.6666 31 43.5 33.1667 43.5 36C43.5 38.8333 41.8333 41 39.1666 41C36.5 41 34.8333 38.8333 34.8333 36ZM41.3333 36C41.3333 34.1667 40.5 32.8333 39.1666 32.8333C37.8333 32.8333 37 34.1667 37 36C37 37.8333 37.8333 39.1667 39.1666 39.1667C40.5 39.1667 41.3333 37.8333 41.3333 36Z" fill="#F1F1F1"/>
</g>
</svg>
