<svg width="72" height="72" viewBox="0 0 72 72" fill="none" xmlns="http://www.w3.org/2000/svg">
<g opacity="0.7">
<path d="M25.6666 26.1667C31 20.8333 39.5 20.5 45.1666 25.1667L44.8333 21L46.5 20.8333L47 27.6667L40.1666 28.1667L40 26.5L44.1666 26.1667C39 22.3333 31.6666 22.6667 26.8333 27.3333C21.8333 32.3333 21.8333 40.5 26.8333 45.5C31.8333 50.5 40 50.5 45 45.5C47.5 43 48.8333 39.8333 48.8333 36.3333H50.5C50.5 40.1667 49 43.8333 46.1666 46.6667C43.5 49.5 39.6666 51 36 51C32.3333 51 28.5 49.5 25.6666 46.6667C20 41 20 31.8333 25.6666 26.1667Z" fill="#F1F1F1"/>
<path d="M30.6667 33.1667L29 33.6667L28.5 31.8333L31.3333 31H32.8333V40.8333H30.6667V33.1667Z" fill="#F1F1F1"/>
<path d="M34.8334 36C34.8334 33.1667 36.6667 31 39.1667 31C41.6667 31 43.5 33.1667 43.5 36C43.5 38.8333 41.8334 41 39.1667 41C36.5 41 34.8334 38.8333 34.8334 36ZM41.3334 36C41.3334 34.1667 40.5 32.8333 39.1667 32.8333C37.8334 32.8333 37 34.1667 37 36C37 37.8333 37.8334 39.1667 39.1667 39.1667C40.5 39.1667 41.3334 37.8333 41.3334 36Z" fill="#F1F1F1"/>
</g>
</svg>
