<svg width="72" height="72" viewBox="0 0 72 72" fill="none" xmlns="http://www.w3.org/2000/svg">
<g opacity="0.7">
<path d="M51 24.3333V47.6667H21V24.3333H51ZM52.6667 22.6667H19.3333V49.3333H52.6667V22.6667Z" fill="#F1F1F1"/>
<path d="M29.6333 31H31.5667L35.8333 41H33.65L32.6667 38.7333H28.4167L27.4833 41H25.35L29.6333 31ZM31.9667 36.8833L30.5667 33.55L29.1667 36.8833H31.9667Z" fill="#F1F1F1"/>
<path d="M37.5333 31H41.3667C42.0467 30.9614 42.7275 31.0621 43.3672 31.2961C44.0069 31.53 44.5921 31.8922 45.0868 32.3604C45.5815 32.8286 45.9754 33.3929 46.2442 34.0188C46.513 34.6446 46.6511 35.3188 46.65 36C46.6511 36.6811 46.513 37.3553 46.2442 37.9812C45.9754 38.607 45.5815 39.1714 45.0868 39.6396C44.5921 40.1078 44.0069 40.47 43.3672 40.7039C42.7275 40.9378 42.0467 41.0386 41.3667 41H37.5333V31ZM39.6333 32.9V39.0333H41.3C41.7128 39.0695 42.1286 39.0169 42.5193 38.8789C42.91 38.7409 43.2667 38.5208 43.5652 38.2333C43.8636 37.9459 44.0971 37.5978 44.2497 37.2126C44.4023 36.8273 44.4706 36.4139 44.45 36C44.4692 35.5907 44.4024 35.182 44.254 34.8002C44.1056 34.4183 43.8789 34.0718 43.5884 33.7828C43.298 33.4939 42.9502 33.2691 42.5675 33.1228C42.1849 32.9765 41.7758 32.9119 41.3667 32.9333L39.6333 32.9Z" fill="#F1F1F1"/>
</g>
</svg>
