<svg width="520" height="142" viewBox="0 0 520 142" fill="none" xmlns="http://www.w3.org/2000/svg">
<g clip-path="url(#clip0_201_117)">
<path d="M257.852 0H253.191V142H257.852V0Z" fill="white"/>
<path d="M306.615 82.6584L309.949 78.6805C313.097 81.4753 316.3 82.975 320.405 82.975C324.045 82.975 326.394 81.261 326.394 78.6805V78.5873C326.394 76.1931 325.038 74.8612 318.863 73.4359C311.797 71.7684 307.915 69.6444 307.915 63.6357V63.5425C307.915 57.953 312.558 54.0962 319.058 54.0962C323.388 53.9777 327.614 55.4374 330.953 58.2045L327.935 62.4062C325.41 60.2991 322.249 59.1074 318.965 59.0242C315.492 59.0242 313.394 60.7852 313.394 63.0489V63.1326C313.394 65.7597 314.926 66.98 321.37 68.4705C328.353 70.138 331.873 72.6722 331.873 78.0474V78.1402C331.873 84.242 327.053 87.903 320.247 87.903C315.206 87.9422 310.337 86.0689 306.615 82.6584Z" fill="white"/>
<path d="M349.654 59.658H339.161V54.5343H365.653V59.6489H355.225V87.4469H349.654V59.658Z" fill="white"/>
<path d="M375.255 54.5343H389.805C393.91 54.5343 397.15 55.7547 399.267 57.8321C400.15 58.7747 400.84 59.8825 401.295 61.0926C401.751 62.3027 401.964 63.5911 401.923 64.884V64.9772C401.923 70.3524 398.682 73.6128 393.993 74.8798L403.01 87.4469H396.426L388.227 75.83H380.798V87.4469H375.227L375.255 54.5343ZM389.397 70.9019C393.594 70.9019 396.343 68.6849 396.343 65.2474V65.1637C396.343 61.5865 393.724 59.5743 389.36 59.5743H380.798V70.9206L389.397 70.9019Z" fill="white"/>
<path d="M412.576 54.5343H436.812V59.5088H418.064V68.3683H434.695V73.3427H418.064V82.4725H437.035V87.4469H412.576V54.5343Z" fill="white"/>
<path d="M459.076 54.3201H464.211L478.678 87.456H472.865L469.439 79.454H453.653L450.227 87.456H444.553L459.076 54.3201ZM467.433 74.4795L461.574 60.9157L455.715 74.4795H467.433Z" fill="white"/>
<path d="M487.881 54.5343H493.731L503.945 70.3711L514.159 54.5343H520.009V87.4469H514.512V63.4866L503.973 79.2583H503.787L493.294 63.5799V87.4469H487.89L487.881 54.5343Z" fill="white"/>
<path d="M7.62464 20.5409H16.9104L26.3634 33.2477H30.8761L20.8661 19.889C25.9918 18.9575 29.7154 15.7806 29.7154 10.3681V10.2753C29.741 9.08734 29.5318 7.90566 29.0999 6.79921C28.668 5.69276 28.0219 4.68308 27.199 3.82845C25.1561 1.76967 21.9433 0.558838 17.9133 0.558838H3.90106V33.2477H7.61535L7.62464 20.5409ZM7.62464 3.96855H17.6811C22.9369 3.96855 26.0383 6.39989 26.0383 10.415V10.5082C26.0383 14.7096 22.5469 17.2339 17.6811 17.2339H7.68041L7.62464 3.96855Z" fill="white"/>
<path d="M61.1206 33.8068C71.0284 33.8068 77.7791 25.9165 77.7791 16.8988C77.8255 16.8523 77.8255 16.8522 77.7791 16.8056C77.7791 7.79725 71.1214 0.0372314 61.2135 0.0372314C51.3057 0.0372314 44.5455 7.9278 44.5455 16.9361V17.0294C44.5455 26.0098 51.2034 33.8068 61.1206 33.8068ZM48.362 16.8056C48.362 9.35298 53.6734 3.40964 61.1206 3.40964C68.5677 3.40964 73.9628 9.48349 73.9628 16.8988V16.9921C73.9628 24.4447 68.6607 30.3971 61.2135 30.3971C53.7664 30.3971 48.362 24.3328 48.362 16.8988V16.8056Z" fill="white"/>
<path d="M103.088 33.2478H106.811V20.271L120.368 0.558838H116.078L105 16.908L94.0154 0.558838H89.549L103.088 20.3175V33.2478Z" fill="white"/>
<path d="M144.496 0.32605L129.639 33.2478H133.418L137.272 24.6121H155.017L158.824 33.2478H162.789L147.932 0.32605H144.496ZM138.721 21.2865L146.149 4.62048L153.578 21.2865H138.721Z" fill="white"/>
<path d="M201.618 29.8382H183.278V0.558838H179.601V33.2478H201.618V29.8382Z" fill="white"/>
<path d="M26.4171 123.275H7.60427V108.752H3.92712V141.441H7.60427V126.731H26.4171V141.441H30.0943V108.752H26.4171V123.275Z" fill="white"/>
<path d="M61.907 108.193C51.9899 108.193 45.2483 116.084 45.2483 125.092V125.185C45.2483 134.203 51.9062 142 61.8141 142C71.7219 142 78.4819 134.11 78.4819 125.092C78.5283 125.046 78.5283 125.045 78.4819 124.999C78.5097 116.019 71.8242 108.193 61.907 108.193ZM74.6656 125.185C74.6656 132.638 69.3542 138.59 61.907 138.59C54.4599 138.59 49.0648 132.526 49.0648 125.092V124.999C49.0648 117.546 54.3669 111.602 61.8141 111.602C69.2612 111.602 74.6656 117.677 74.6656 125.092V125.185Z" fill="white"/>
<path d="M117.511 127.756C117.511 134.901 113.703 138.544 107.696 138.544C101.456 138.544 97.732 134.575 97.732 127.523V108.752H94.0177V127.756C94.0177 137.007 99.5149 141.953 107.566 141.953C115.616 141.953 121.151 137.007 121.151 127.476V108.752H117.436L117.511 127.756Z" fill="white"/>
<path d="M150.724 123.322C143.555 121.785 141.884 120.052 141.884 116.969V116.875C141.884 113.932 144.577 111.603 148.82 111.603C152.277 111.607 155.616 112.868 158.218 115.152L160.362 112.301C157.166 109.593 153.086 108.164 148.904 108.287C142.72 108.287 138.207 112.069 138.207 117.202V117.295C138.207 122.67 141.652 125.101 149.145 126.732C155.989 128.176 157.614 129.908 157.614 132.945V133.038C157.614 136.262 154.726 138.628 150.353 138.628C145.979 138.628 142.58 137.091 139.21 133.97L136.925 136.681C140.519 140.091 145.295 141.965 150.241 141.907C156.741 141.907 161.384 138.265 161.384 132.666V132.573C161.338 127.57 157.985 124.906 150.724 123.322Z" fill="white"/>
<path d="M181.969 126.638H199.751V123.275H181.969V112.115H201.85V108.752H178.292V141.441H202.082V138.078H181.969V126.638Z" fill="white"/>
<path d="M16.6689 54.0962C6.75173 54.0962 -0.0454102 61.987 -0.0454102 71.0046V71.0883C-0.0454102 80.106 6.61254 87.8567 16.5297 87.8567C26.4468 87.8567 33.1975 79.9661 33.1975 70.9578C33.2439 70.9019 33.2439 70.902 33.1975 70.8554C33.2439 61.8937 26.586 54.0962 16.6689 54.0962ZM29.4274 71.0883C29.4274 78.5409 24.116 84.4938 16.6689 84.4938C9.22173 84.4938 3.81759 78.42 3.81759 71.0046V70.9018C3.81759 63.4492 9.12901 57.5059 16.5762 57.5059C24.0233 57.5059 29.4274 63.5707 29.4274 71.0046V71.0883Z" fill="white"/>
<path d="M62.2061 54.6553H50.0141V87.3446H53.7284V75.8113H61.6398C68.5763 75.8113 74.4449 72.1689 74.4449 65.1168V65.0236C74.4077 58.5771 69.5697 54.6553 62.2061 54.6553ZM70.6841 65.2565C70.6841 69.5511 67.1461 72.4485 61.7418 72.4485H53.6912V58.065H61.9275C67.1925 58.065 70.6841 60.4965 70.6841 65.1637V65.2565Z" fill="white"/>
<path d="M113.391 83.9816H93.2778V72.5419H111.06V69.1789H93.2778V58.0186H113.159V54.6556H89.6007V87.3446H113.391V83.9816Z" fill="white"/>
<path d="M154.236 87.3446H158.758L148.748 73.9855C153.864 73.0539 157.588 69.8775 157.588 64.465V64.3622C157.612 63.1758 157.402 61.9963 156.97 60.8916C156.538 59.7868 155.893 58.7789 155.071 57.9253C153.028 55.8666 149.816 54.6553 145.786 54.6553H131.774V87.3446H135.488V74.6377H144.774L154.236 87.3446ZM135.479 58.065H145.535C150.791 58.065 153.892 60.4872 153.892 64.5023V64.6047C153.892 68.8061 150.401 71.3304 145.535 71.3304H135.525L135.479 58.065Z" fill="white"/>
<path d="M198.243 78.7554L202.06 87.3911H206.016L191.159 54.4694H187.714L172.856 87.3911H176.626L180.489 78.7554H198.243ZM189.394 58.7638L196.823 75.4389H181.966L189.394 58.7638Z" fill="white"/>
</g>
<defs>
<clipPath id="clip0_201_117">
<rect width="520" height="142" fill="white"/>
</clipPath>
</defs>
</svg>
