<svg width="219" height="60" viewBox="0 0 219 60" fill="none" xmlns="http://www.w3.org/2000/svg">
<g clip-path="url(#clip0_1051:5161)">
<g clip-path="url(#clip1_1051:5161)">
<path d="M108.19 0H106.234V59.3883H108.19V0Z" fill="white"/>
<path d="M128.65 34.57L130.049 32.9064C131.369 34.0752 132.714 34.7024 134.436 34.7024C135.963 34.7024 136.949 33.9856 136.949 32.9064V32.8674C136.949 31.8661 136.38 31.309 133.789 30.7129C130.824 30.0155 129.195 29.1272 129.195 26.6142V26.5752C129.195 24.2375 131.143 22.6245 133.871 22.6245C135.687 22.575 137.46 23.1854 138.862 24.3427L137.595 26.1C136.536 25.2187 135.21 24.7203 133.832 24.6856C132.375 24.6856 131.494 25.422 131.494 26.3688V26.4038C131.494 27.5025 132.137 28.0129 134.841 28.6363C137.771 29.3337 139.247 30.3935 139.247 32.6416V32.6804C139.247 35.2323 137.225 36.7635 134.369 36.7635C132.255 36.7798 130.212 35.9964 128.65 34.57V34.57Z" fill="white"/>
<path d="M146.708 24.9506H142.305V22.8077H153.421V24.9468H149.045V36.5727H146.708V24.9506Z" fill="white"/>
<path d="M157.449 22.8077H163.555C165.277 22.8077 166.636 23.3181 167.525 24.187C167.895 24.5812 168.184 25.0445 168.376 25.5506C168.567 26.0567 168.656 26.5955 168.639 27.1363V27.1753C168.639 29.4233 167.279 30.7869 165.312 31.3168L169.095 36.5727H166.333L162.892 31.7142H159.775V36.5727H157.438L157.449 22.8077ZM163.383 29.6531C165.144 29.6531 166.297 28.7259 166.297 27.2883V27.2533C166.297 25.7571 165.199 24.9156 163.368 24.9156H159.775V29.6609L163.383 29.6531Z" fill="white"/>
<path d="M173.109 22.8077H183.278V24.8882H175.411V28.5935H182.389V30.6739H175.411V34.4922H183.371V36.5727H173.109V22.8077Z" fill="white"/>
<path d="M192.619 22.7181H194.774L200.844 36.5765H198.405L196.967 33.2298H190.344L188.906 36.5765H186.526L192.619 22.7181ZM196.126 31.1494L193.667 25.4766L191.209 31.1494H196.126Z" fill="white"/>
<path d="M204.705 22.8077H207.16L211.445 29.4311L215.731 22.8077H218.186V36.5727H215.879V26.5518L211.457 33.148H211.379L206.976 26.5908V36.5727H204.709L204.705 22.8077Z" fill="white"/>
<path d="M3.19906 8.59079H7.09516L11.0615 13.9051H12.9549L8.75491 8.31818C10.9056 7.92857 12.4679 6.59992 12.4679 4.33628V4.29747C12.4786 3.80062 12.3909 3.30641 12.2097 2.84366C12.0284 2.38091 11.7574 1.95864 11.4121 1.60121C10.5549 0.740167 9.20688 0.233765 7.51597 0.233765H1.63672V13.9051H3.19516L3.19906 8.59079ZM3.19906 1.6598H7.41857C9.62377 1.6598 10.9251 2.67665 10.9251 4.35587V4.39487C10.9251 6.15202 9.46013 7.20775 7.41857 7.20775H3.22246L3.19906 1.6598Z" fill="white"/>
<path d="M25.645 14.1389C29.8022 14.1389 32.6346 10.839 32.6346 7.06755C32.6541 7.04807 32.6541 7.04803 32.6346 7.02855C32.6346 3.26102 29.8412 0.015564 25.684 0.015564C21.5269 0.015564 18.6904 3.31562 18.6904 7.08315V7.12215C18.6904 10.878 21.484 14.1389 25.645 14.1389ZM20.2918 7.02855C20.2918 3.91167 22.5203 1.426 25.645 1.426C28.7697 1.426 31.0334 3.96625 31.0334 7.06755V7.10655C31.0334 10.2234 28.8087 12.7129 25.684 12.7129C22.5593 12.7129 20.2918 10.1766 20.2918 7.06755V7.02855Z" fill="white"/>
<path d="M43.2535 13.9051H44.8159V8.47786L50.5042 0.233704H48.7042L44.0561 7.07137L39.447 0.233704H37.573L43.2535 8.49734V13.9051Z" fill="white"/>
<path d="M60.6278 0.136353L54.394 13.9051H55.9797L57.5966 10.2934H65.042L66.6395 13.9051H68.3031L62.0693 0.136353H60.6278ZM58.2044 8.90259L61.3213 1.9324L64.4382 8.90259H58.2044Z" fill="white"/>
<path d="M84.5948 12.4792H76.9V0.233704H75.3572V13.9051H84.5948V12.4792Z" fill="white"/>
<path d="M11.0841 51.557H3.19056V45.483H1.64771V59.1544H3.19056V53.0025H11.0841V59.1544H12.6269V45.483H11.0841V51.557Z" fill="white"/>
<path d="M25.975 45.2494C21.814 45.2494 18.9854 48.5494 18.9854 52.317V52.3558C18.9854 56.1272 21.7789 59.3884 25.936 59.3884C30.0932 59.3884 32.9295 56.0884 32.9295 52.317C32.949 52.2975 32.949 52.2975 32.9295 52.278C32.9412 48.5221 30.1361 45.2494 25.975 45.2494ZM31.3283 52.3558C31.3283 55.4727 29.0997 57.9623 25.975 57.9623C22.8504 57.9623 20.5867 55.4261 20.5867 52.317V52.278C20.5867 49.1611 22.8114 46.6752 25.936 46.6752C29.0607 46.6752 31.3283 49.2157 31.3283 52.317V52.3558Z" fill="white"/>
<path d="M49.3052 53.4312C49.3052 56.4195 47.7077 57.9429 45.187 57.9429C42.5688 57.9429 41.0064 56.2831 41.0064 53.3338V45.4832H39.448V53.4312C39.448 57.3 41.7545 59.3687 45.1324 59.3687C48.5104 59.3687 50.8324 57.2999 50.8324 53.3142V45.4832H49.274L49.3052 53.4312Z" fill="white"/>
<path d="M63.2408 51.5766C60.233 50.9337 59.5317 50.2091 59.5317 48.9195V48.8805C59.5317 47.6493 60.6616 46.6752 62.4421 46.6752C63.8926 46.6772 65.2934 47.2045 66.385 48.1597L67.2849 46.9674C65.9437 45.8349 64.2319 45.2372 62.4772 45.2884C59.8824 45.2884 57.9889 46.8701 57.9889 49.0169V49.0559C57.9889 51.3039 59.4343 52.3208 62.5785 53.0026C65.4499 53.6065 66.1317 54.3311 66.1317 55.6013V55.6403C66.1317 56.9883 64.9201 57.9779 63.085 57.9779C61.25 57.9779 59.824 57.3351 58.4097 56.0299L57.4512 57.1637C58.9592 58.5899 60.9628 59.3737 63.0382 59.3494C65.7655 59.3494 67.7135 57.826 67.7135 55.4844V55.4455C67.6941 53.3532 66.2876 52.2389 63.2408 51.5766Z" fill="white"/>
<path d="M76.3507 52.9635H83.8118V51.557H76.3507V46.8895H84.6923V45.483H74.8079V59.1544H84.7897V57.7479H76.3507V52.9635Z" fill="white"/>
<path d="M6.99394 22.6246C2.8329 22.6246 -0.019043 25.9247 -0.019043 29.6962V29.7312C-0.019043 33.5026 2.7745 36.7441 6.93554 36.7441C11.0966 36.7441 13.929 33.4441 13.929 29.6766C13.9485 29.6532 13.9485 29.6532 13.929 29.6338C13.9485 25.8857 11.155 22.6246 6.99394 22.6246ZM12.3472 29.7312C12.3472 32.848 10.1186 35.3377 6.99394 35.3377C3.86927 35.3377 1.6018 32.7975 1.6018 29.6962V29.6532C1.6018 26.5363 3.83036 24.0506 6.95504 24.0506C10.0797 24.0506 12.3472 26.5871 12.3472 29.6962V29.7312Z" fill="white"/>
<path d="M26.1004 22.8584H20.9849V36.53H22.5433V31.7064H25.8628C28.7732 31.7064 31.2355 30.1831 31.2355 27.2337V27.1947C31.22 24.4986 29.19 22.8584 26.1004 22.8584ZM29.6576 27.2921C29.6576 29.0882 28.1731 30.3 25.9056 30.3H22.5277V24.2844H25.9835C28.1926 24.2844 29.6576 25.3014 29.6576 27.2533V27.2921Z" fill="white"/>
<path d="M47.5765 35.1235H39.1376V30.339H46.5986V28.9325H39.1376V24.265H47.4791V22.8585H37.5947V36.53H47.5765V35.1235Z" fill="white"/>
<path d="M64.7142 36.53H66.6116L62.4115 30.9428C64.5583 30.5532 66.1206 29.2247 66.1206 26.9611V26.9181C66.1308 26.4219 66.0428 25.9286 65.8616 25.4666C65.6804 25.0045 65.4096 24.583 65.0648 24.226C64.2077 23.365 62.8596 22.8584 61.1687 22.8584H55.2896V36.53H56.848V31.2156H60.7441L64.7142 36.53ZM56.8441 24.2844H61.0635C63.2687 24.2844 64.57 25.2975 64.57 26.9767V27.0195C64.57 28.7767 63.1051 29.8324 61.0635 29.8324H56.8635L56.8441 24.2844Z" fill="white"/>
<path d="M83.179 32.9376L84.7803 36.5493H86.4401L80.2063 22.7806H78.7609L72.5271 36.5493H74.1088L75.7297 32.9376H83.179ZM79.466 24.5766L82.5829 31.5506H76.3491L79.466 24.5766Z" fill="white"/>
</g>
</g>
<defs>
<clipPath id="clip0_1051:5161">
<rect width="218.182" height="60" fill="white"/>
</clipPath>
<clipPath id="clip1_1051:5161">
<rect width="218.182" height="59.3883" fill="white"/>
</clipPath>
</defs>
</svg>
