<svg width="40" height="40" viewBox="0 0 40 40" fill="none" xmlns="http://www.w3.org/2000/svg">
<path d="M35 8.33317V31.6665H5.00004V8.33317H35ZM36.6667 6.6665H3.33337V33.3332H36.6667V6.6665Z" fill="#F1F1F1"/>
<path d="M13.6334 15H15.5668L19.8334 25H17.6501L16.6668 22.7333H12.4168L11.4834 25H9.3501L13.6334 15ZM15.9668 20.8833L14.5668 17.55L13.1668 20.8833H15.9668Z" fill="#F1F1F1"/>
<path d="M21.5333 14.9997H25.3667C26.0467 14.9611 26.7275 15.0619 27.3672 15.2958C28.0069 15.5298 28.5921 15.8919 29.0868 16.3601C29.5815 16.8283 29.9754 17.3927 30.2442 18.0185C30.513 18.6444 30.6511 19.3186 30.65 19.9997C30.6511 20.6809 30.513 21.3551 30.2442 21.9809C29.9754 22.6068 29.5815 23.1711 29.0868 23.6393C28.5921 24.1075 28.0069 24.4697 27.3672 24.7036C26.7275 24.9376 26.0467 25.0383 25.3667 24.9997H21.5333V14.9997ZM23.6333 16.8997V23.0331H25.3C25.7128 23.0693 26.1286 23.0167 26.5193 22.8787C26.91 22.7407 27.2667 22.5205 27.5652 22.2331C27.8636 21.9457 28.0971 21.5976 28.2497 21.2123C28.4023 20.8271 28.4706 20.4136 28.45 19.9997C28.4692 19.5905 28.4024 19.1818 28.254 18.7999C28.1056 18.4181 27.8789 18.0715 27.5884 17.7826C27.298 17.4937 26.9502 17.2688 26.5675 17.1225C26.1849 16.9762 25.7758 16.9117 25.3667 16.9331L23.6333 16.8997Z" fill="#F1F1F1"/>
</svg>
