<svg width="40" height="40" viewBox="0 0 40 40" fill="none" xmlns="http://www.w3.org/2000/svg">
<path d="M15 11.6665H11.6666V13.3332H15V11.6665Z" fill="#F1F1F1"/>
<path d="M28.3334 11.6665H18.3334V13.3332H28.3334V11.6665Z" fill="#F1F1F1"/>
<path d="M15 20H11.6666V21.6667H15V20Z" fill="#F1F1F1"/>
<path d="M28.3334 20H18.3334V21.6667H28.3334V20Z" fill="#F1F1F1"/>
<path d="M28.3333 15.8335H25V17.5002H28.3333V15.8335Z" fill="#F1F1F1"/>
<path d="M21.6666 15.8335H11.6666V17.5002H21.6666V15.8335Z" fill="#F1F1F1"/>
<path d="M31.6667 5H8.33333C7.44928 5 6.60143 5.35119 5.97631 5.97631C5.35119 6.60143 5 7.44928 5 8.33333V25C5 25.8841 5.35119 26.7319 5.97631 27.357C6.60143 27.9821 7.44928 28.3333 8.33333 28.3333H18.8333L28.3333 35V28.3333H31.6667C32.5507 28.3333 33.3986 27.9821 34.0237 27.357C34.6488 26.7319 35 25.8841 35 25V8.33333C35 7.44928 34.6488 6.60143 34.0237 5.97631C33.3986 5.35119 32.5507 5 31.6667 5ZM33.3333 25C33.3481 25.2227 33.3151 25.4459 33.2365 25.6548C33.158 25.8637 33.0357 26.0534 32.8779 26.2112C32.7201 26.369 32.5304 26.4913 32.3215 26.5698C32.1126 26.6484 31.8893 26.6814 31.6667 26.6667H26.6667V31.6667L21.8333 28.3333L21.5 28L19.5 26.6667H8.33333C8.11065 26.6814 7.88739 26.6484 7.6785 26.5698C7.46962 26.4913 7.27992 26.369 7.12212 26.2112C6.96431 26.0534 6.84204 25.8637 6.7635 25.6548C6.68495 25.4459 6.65194 25.2227 6.66667 25V8.33333C6.65194 8.11065 6.68495 7.88739 6.7635 7.6785C6.84204 7.46962 6.96431 7.27992 7.12212 7.12212C7.27992 6.96431 7.46962 6.84204 7.6785 6.7635C7.88739 6.68495 8.11065 6.65194 8.33333 6.66667H31.6667C31.8893 6.65194 32.1126 6.68495 32.3215 6.7635C32.5304 6.84204 32.7201 6.96431 32.8779 7.12212C33.0357 7.27992 33.158 7.46962 33.2365 7.6785C33.3151 7.88739 33.3481 8.11065 33.3333 8.33333V25Z" fill="#F1F1F1"/>
</svg>
