<svg width="40" height="40" viewBox="0 0 40 40" fill="none" xmlns="http://www.w3.org/2000/svg">
<path d="M28 5H26.3333H20.8333H19.1667H13.6667H12H5V12.5V13.8333V26.1667V27.5V35H12H13.6667H19H20.6667H26H27.6667H35V28.3333V26.1667V13.8333V13.3333V5H28ZM28 6.66667H33.3333V12.1667H28V6.66667ZM20.8333 6.66667H26.1667V12.1667H20.8333V6.66667ZM13.6667 6.66667H19V12.1667H13.6667V6.66667ZM6.66667 6.66667H12V12.1667H6.66667V6.66667ZM12 33.3333H6.66667V27.8333H12V33.3333ZM19.1667 33.3333H13.6667V27.8333H19V33.3333H19.1667ZM26.3333 33.3333H20.8333V27.8333H26.1667V33.3333H26.3333ZM33.3333 33.3333H28V27.8333H33.3333V28.3333V33.3333ZM33.3333 26.1667H28H26.3333H20.8333H19.1667H13.6667H12H6.66667V13.8333H12H13.6667H19H20.6667H26H27.6667H33.3333V26.1667Z" fill="#F1F1F1"/>
<path d="M16.6666 24.3332L25 19.9998L16.6666 15.6665V24.3332Z" fill="#F1F1F1"/>
</svg>
